<?xml version="1.0" encoding="utf-8"?>
<!-- Generator: Adobe Illustrator 19.2.1, SVG Export Plug-In . SVG Version: 6.00 Build 0)  -->
<svg version="1.1" id="layer" xmlns="http://www.w3.org/2000/svg" xmlns:xlink="http://www.w3.org/1999/xlink" x="0px" y="0px"
	 viewBox="0 0 652 652" style="enable-background:new 0 0 652 652;" xml:space="preserve">
<g>
	<path d="M57.2,323.4H27.5V334h-6.1v-26.2h35.8c2.9,0,5.2,2.3,5.2,5.3v5.1C62.4,321,60.1,323.4,57.2,323.4z M56.4,314
		c0-0.6-0.5-1.2-1.1-1.2H27.5v5.5h27.7c0.6,0,1.1-0.5,1.1-1.1C56.4,317.2,56.4,314,56.4,314z"/>
	<path d="M104.7,334H73.3c-2.9,0-5.2-2.3-5.2-5.3V313c0-2.9,2.3-5.3,5.2-5.3h31.3c2.9,0,5.3,2.3,5.3,5.3v15.7
		C109.9,331.6,107.6,334,104.7,334z M103.8,314c0-0.6-0.5-1.2-1.1-1.2H75.3c-0.6,0-1.1,0.5-1.1,1.2v13.8c0,0.6,0.5,1.1,1.1,1.1h27.4
		c0.6,0,1.1-0.5,1.1-1.1L103.8,314L103.8,314z"/>
	<path d="M152.1,334v-1.8c0-5.9-2.5-8.7-7.7-8.7H123V334h-6.1v-26.2h35.4c2.9,0,5.3,2.3,5.3,5.3v5.1c0,2-1.4,3.7-3.2,4.3
		c2.6,1.8,3.7,5,3.7,9.1v2.4H152.1z M151.5,314c0-0.6-0.5-1.2-1.2-1.2H123v5.5h27.4c0.7,0,1.2-0.5,1.2-1.1V314z"/>
	<path d="M200.5,334h-35.8v-5.1h33.8c0.6,0,1.1-0.5,1.1-1.1v-3.2c0-0.6-0.5-1.1-1.1-1.1H170c-2.9,0-5.2-2.4-5.2-5.3V313
		c0-2.9,2.3-5.3,5.2-5.3h35v5.1h-33c-0.6,0-1.1,0.5-1.1,1.2v3.2c0,0.6,0.5,1.1,1.1,1.1h28.6c2.9,0,5.2,2.4,5.2,5.3v5.1
		C205.8,331.6,203.4,334,200.5,334z"/>
	<path d="M218,334c-2.9,0-5.2-2.3-5.2-5.3V313c0-2.9,2.3-5.3,5.2-5.3h34.2v5.1H220c-0.6,0-1.1,0.5-1.1,1.2v13.8
		c0,0.6,0.5,1.1,1.1,1.1h32.2v5.1H218z"/>
	<path d="M291.8,334v-10.6h-27.2V334h-6.1v-26.2h6.1v10.6h27.2v-10.6h6.1V334H291.8z"/>
	<path d="M305.2,334v-26.2h41v5.1h-34.9v5.5h34.1v5.1h-34.1v5.5h34.9v5.1L305.2,334L305.2,334z"/>
	<path d="M409.8,334H374v-26.2h35.8c2.8,0,5.2,2.2,5.2,5.1v15.9C415,331.6,412.7,334,409.8,334z M408.9,314c0-0.6-0.5-1.2-1.1-1.2
		h-27.7v16.1h27.7c0.6,0,1.1-0.5,1.1-1.1L408.9,314L408.9,314z"/>
	<path d="M422.1,334v-26.2h41v5.1h-34.9v5.5h34.1v5.1h-34.1v5.5h34.9v5.1L422.1,334L422.1,334z"/>
	<path d="M505.7,334H470v-5.1h33.8c0.6,0,1.1-0.5,1.1-1.1v-3.2c0-0.6-0.5-1.1-1.1-1.1h-28.6c-2.9,0-5.2-2.4-5.2-5.3V313
		c0-2.9,2.3-5.3,5.2-5.3h35v5.1h-33c-0.6,0-1.1,0.5-1.1,1.2v3.2c0,0.6,0.5,1.1,1.1,1.1h28.6c2.9,0,5.2,2.4,5.2,5.3v5.1
		C511,331.6,508.6,334,505.7,334z"/>
	<path d="M518.7,334v-26.2h6.1V334H518.7z"/>
	<path d="M567.9,334h-30.5c-2.9,0-5.2-2.3-5.2-5.3V313c0-2.9,2.3-5.3,5.2-5.3h35.8v5.1h-33.8c-0.6,0-1.1,0.5-1.1,1.2v13.8
		c0,0.6,0.5,1.1,1.1,1.1H566c0.6,0,1.1-0.5,1.1-1.1v-4.3h-13.8v-5.1h19.9v10.4C573.2,331.6,570.9,334,567.9,334z"/>
	<path d="M615.4,334l-28.9-19.7V334h-6.1v-26.2h6.1l28.9,19.7v-19.7h6.1V334H615.4z"/>
</g>
</svg>
